<?xml version="1.0" standalone="no"?>
<!DOCTYPE svg PUBLIC "-//W3C//DTD SVG 20010904//EN"
 "http://www.w3.org/TR/2001/REC-SVG-20010904/DTD/svg10.dtd">
<svg version="1.0" xmlns="http://www.w3.org/2000/svg"
 width="400.000000pt" height="600.000000pt" viewBox="0 0 400.000000 600.000000"
 preserveAspectRatio="xMidYMid meet">
<metadata>
Created by potrace 1.16, written by Peter Selinger 2001-2019
</metadata>
<g transform="translate(0.000000,600.000000) scale(0.100000,-0.100000)"
fill="#000000" stroke="none">
<path d="M230 5796 c0 -7 12 -21 26 -31 14 -9 36 -38 47 -63 22 -46 22 -55 25
-732 2 -475 0 -705 -8 -750 -12 -67 -48 -130 -76 -130 -7 0 -14 -9 -14 -20 0
-19 7 -20 235 -20 253 0 266 3 205 48 -64 48 -65 54 -68 416 l-3 329 73 75 73
74 67 -5 c148 -12 198 -67 307 -339 202 -500 247 -579 348 -607 41 -12 208
-13 258 -2 42 9 47 41 6 41 -89 0 -123 56 -286 470 -107 272 -184 389 -291
443 -65 32 -96 38 -239 46 l-120 6 240 243 c131 134 246 253 253 264 20 28
157 135 206 160 22 12 70 31 106 43 40 14 66 29 68 39 3 14 -17 16 -197 16
-111 0 -201 -4 -201 -9 0 -5 14 -14 30 -21 41 -17 48 -51 23 -104 -28 -56
-125 -163 -447 -491 l-275 -280 -1 365 c0 237 4 379 11 405 7 24 27 55 50 77
21 21 39 42 39 48 0 7 -79 10 -235 10 -194 0 -235 -2 -235 -14z"/>
<path d="M2000 4760 c0 -566 -1 -1030 -3 -1030 -1 0 -17 4 -34 9 -116 33 -188
-97 -102 -185 l33 -34 -43 0 c-53 0 -85 17 -141 75 -25 26 -61 55 -82 66 -37
19 -148 41 -148 30 0 -14 87 -91 130 -115 56 -32 45 -32 -102 -2 -172 36 -208
55 -258 131 -55 85 -75 96 -165 98 -41 1 -78 -2 -82 -7 -21 -21 212 -176 265
-176 33 0 164 -47 149 -53 -44 -17 -138 -18 -205 -3 -83 19 -164 21 -195 5
-35 -19 -77 -56 -70 -63 12 -11 147 -6 243 9 52 9 115 18 140 21 l45 6 -45
-27 c-49 -29 -90 -64 -90 -77 0 -4 9 1 20 12 24 24 140 83 148 75 3 -3 0 -11
-8 -18 -10 -10 -11 -9 -5 2 6 10 4 12 -4 7 -7 -5 -10 -11 -7 -14 4 -3 -6 -18
-21 -34 -48 -50 -14 -29 52 32 35 33 68 60 72 60 5 0 64 -11 133 -25 69 -14
161 -25 206 -25 61 0 85 -4 94 -15 17 -21 -1 -34 -110 -80 -106 -45 -239 -81
-350 -94 -109 -14 -695 -7 -733 8 -46 18 -56 11 -10 -7 46 -19 64 -32 42 -32
-27 0 -143 -61 -210 -110 -54 -41 -74 -50 -107 -50 -49 0 -68 -20 -20 -21 18
0 26 -3 18 -6 -8 -3 -18 -12 -23 -19 -14 -24 -262 -94 -333 -94 -26 0 -29 20
-4 28 7 3 10 0 6 -7 -5 -7 -1 -9 9 -4 11 4 13 8 6 13 -32 19 93 76 189 87 33
3 58 9 55 13 -8 12 -147 -9 -189 -30 -42 -20 -126 -95 -126 -112 0 -22 228 19
321 57 35 14 64 25 66 25 2 0 -8 -19 -23 -41 -45 -72 -70 -164 -41 -153 16 6
97 114 121 161 9 18 16 45 16 62 0 26 10 37 89 89 173 116 248 131 633 125
l158 -3 -47 -42 c-25 -24 -64 -67 -85 -96 -22 -30 -60 -66 -85 -80 -25 -15
-69 -42 -97 -61 -28 -19 -74 -40 -102 -47 -38 -8 -71 -28 -126 -72 -98 -79
-130 -117 -167 -195 -49 -103 -41 -108 47 -30 42 38 100 84 127 103 58 38 95
70 95 81 0 13 -150 -98 -201 -148 -33 -32 -48 -41 -52 -30 -5 14 40 95 77 136
44 49 157 132 188 138 l33 6 -25 -28 c-14 -15 -65 -60 -115 -100 -49 -40 -106
-90 -125 -111 l-35 -39 40 36 c74 67 224 179 218 162 -4 -11 -3 -14 5 -9 7 4
4 -14 -8 -44 -11 -28 -20 -62 -20 -76 0 -25 3 -23 58 26 72 66 112 132 112
185 0 22 4 45 8 51 7 10 75 54 85 54 3 0 -4 -23 -15 -52 -10 -28 -28 -94 -38
-145 -17 -79 -26 -102 -55 -136 -43 -50 -61 -107 -46 -145 l11 -27 -5 27 c-6
31 14 86 46 126 l21 27 -4 -90 c-3 -49 -12 -106 -20 -125 l-15 -35 -11 35 c-8
28 -10 30 -10 10 0 -14 3 -36 7 -49 l6 -24 32 27 c17 15 39 47 49 71 15 40 15
55 4 133 -17 121 -12 139 23 80 29 -50 115 -130 130 -121 5 3 6 26 2 52 -12
82 -54 142 -111 161 -41 14 -42 24 -9 127 17 54 40 99 75 145 90 119 155 157
314 182 125 21 186 40 309 98 l88 42 22 -22 22 -23 3 -954 2 -955 35 0 35 0 0
973 1 972 78 82 79 81 76 7 c89 9 160 1 219 -23 40 -15 41 -16 17 -23 -47 -13
-95 -9 -162 15 -38 13 -68 22 -68 19 0 -2 26 -16 58 -30 50 -22 66 -25 136
-20 43 3 82 9 88 15 12 12 -77 50 -137 59 -25 3 -45 9 -45 12 0 12 209 43 278
41 94 -3 101 -2 82 10 -12 8 -11 10 6 10 33 0 189 -28 220 -40 26 -10 26 -11
8 -24 -10 -7 -36 -19 -58 -26 -36 -12 -42 -10 -110 25 -76 39 -77 36 -7 -14
26 -18 56 -31 75 -31 34 0 146 41 146 53 0 15 -88 47 -161 58 -50 7 -109 7
-184 1 -60 -5 -111 -9 -113 -7 -9 8 142 74 183 79 78 11 173 45 190 69 23 33
18 43 -8 15 -30 -32 -124 -65 -140 -49 -6 6 -9 12 -6 13 52 33 118 60 147 62
25 1 38 7 40 18 3 15 -2 15 -35 6 -46 -12 -159 -68 -229 -114 -29 -18 -67 -40
-85 -50 -33 -16 -32 -16 14 36 26 29 47 57 47 62 0 5 -23 -15 -51 -46 -48 -52
-76 -66 -62 -30 3 10 8 12 12 5 4 -6 12 -1 20 12 13 20 13 21 -2 8 -21 -17
-21 -9 -1 32 9 18 11 27 4 20 -7 -6 -28 -44 -49 -84 l-36 -73 -125 -23 c-69
-13 -143 -29 -166 -36 l-41 -13 -10 38 c-10 37 -9 38 42 87 65 62 202 152 298
196 39 18 140 56 222 85 83 28 183 67 223 86 40 20 94 38 120 41 60 7 67 13
14 13 l-41 0 50 47 c27 26 73 81 100 122 35 53 64 83 92 99 39 21 35 23 -10 5
-16 -6 -16 -4 1 15 11 12 15 22 11 22 -16 0 31 44 107 100 89 66 164 107 174
97 10 -10 -55 -102 -91 -129 -16 -13 -57 -37 -90 -55 -77 -41 -63 -43 23 -2
80 38 143 100 167 162 10 26 15 50 12 53 -8 8 -137 -60 -193 -101 -27 -21 -65
-53 -86 -72 l-36 -35 10 45 c12 57 7 149 -9 154 -7 3 -20 -22 -32 -64 -29 -96
-34 -144 -21 -177 10 -27 7 -35 -37 -100 -110 -162 -198 -221 -468 -316 -88
-32 -168 -60 -178 -65 -14 -6 -12 4 12 59 17 36 33 81 37 101 11 59 135 231
188 259 25 15 48 40 72 81 76 133 86 162 91 259 4 86 3 90 -13 71 -9 -11 -30
-49 -46 -85 -17 -35 -50 -92 -73 -125 -24 -33 -47 -76 -52 -95 -9 -32 -10 -30
-10 26 -1 34 -6 70 -11 80 -9 16 -15 9 -42 -50 -32 -70 -42 -151 -26 -221 5
-24 1 -37 -24 -65 l-29 -35 -1 39 c0 21 -8 85 -17 142 -16 98 -16 106 2 157
12 36 16 65 11 90 -11 57 -21 51 -18 -11 2 -40 -1 -63 -12 -77 l-15 -20 -1 20
c0 11 -8 31 -16 45 -10 17 -13 18 -9 5 17 -47 15 -58 -4 -25 -29 50 -43 105
-34 137 7 27 8 27 14 -12 l7 -40 0 40 c0 62 0 62 27 30 l26 -30 -22 40 c-12
22 -23 42 -24 43 -2 2 -13 -14 -24 -37 -31 -59 -27 -99 18 -184 21 -40 42 -83
46 -96 6 -20 2 -19 -40 13 -40 31 -142 73 -152 62 -8 -8 18 -56 48 -90 40 -46
78 -66 123 -66 40 0 38 4 53 -112 5 -38 6 -71 3 -75 -4 -5 -15 -37 -25 -73
-38 -140 -80 -195 -204 -265 -53 -29 -125 -79 -161 -109 -65 -56 -83 -65 -95
-46 -3 6 -24 10 -46 10 l-39 0 0 1025 0 1025 -35 0 -35 0 0 -1030z m947 -115
c-19 -78 -92 -207 -129 -230 -16 -9 -28 -13 -28 -10 0 10 41 87 96 180 29 50
56 104 59 120 5 22 0 16 -18 -20 -37 -77 -127 -220 -127 -203 0 8 26 55 58
105 32 49 64 109 72 133 l14 43 9 -28 c7 -19 5 -47 -6 -90z m372 -25 c1 -13 0
-13 -9 0 -7 10 -8 1 -4 -30 3 -25 1 -56 -5 -70 -9 -22 -10 -23 -12 -5 -1 11
-5 2 -9 -20 l-7 -40 -2 40 c-1 22 7 73 16 114 14 59 19 70 24 50 4 -13 7 -31
8 -39z m-550 -102 c-1 -29 -5 -64 -9 -78 -6 -16 -7 -1 -5 45 l4 70 -15 -85
c-19 -111 -22 -120 -36 -97 -20 37 22 197 52 197 6 0 10 -24 9 -52z m-264 6
c80 -42 107 -75 83 -100 -23 -23 -134 58 -143 104 -5 28 0 28 60 -4z m-1336
-750 c23 -14 101 -112 101 -128 0 -13 -30 -4 -86 25 -67 36 -157 99 -150 106
8 9 99 -37 156 -78 55 -40 55 -40 15 -4 -22 20 -65 49 -95 65 l-55 29 43 1
c24 0 56 -7 71 -16z m446 -124 c22 -10 64 -39 93 -65 54 -49 63 -71 16 -40
-15 9 -23 12 -19 5 14 -23 -117 54 -159 92 l-41 38 35 -6 c19 -4 53 -14 75
-24z m-494 -101 c-94 -12 -97 -18 -6 -13 59 3 71 1 45 -5 -56 -14 -169 -22
-145 -11 17 9 15 10 -9 6 l-30 -4 25 19 c19 15 40 18 104 18 l80 -2 -64 -8z
m-646 -488 c-4 -17 -27 -59 -52 -93 -55 -76 -69 -91 -59 -63 5 11 9 30 10 42
3 20 63 123 72 123 6 0 -11 -33 -43 -83 -14 -22 -23 -41 -20 -43 2 -2 24 31
48 75 24 43 46 77 47 76 2 -2 1 -17 -3 -34z m595 -101 c0 -33 -39 -101 -83
-147 -38 -40 -75 -62 -47 -28 6 8 9 19 6 24 -8 12 32 95 63 131 12 14 2 -8
-20 -48 -23 -40 -40 -74 -38 -77 3 -2 27 34 54 80 51 87 65 101 65 65z m-96
-45 c-9 -14 -18 -25 -21 -25 -5 0 5 18 20 38 17 22 18 13 1 -13z m228 -75 c26
-20 50 -64 62 -110 6 -23 5 -24 -6 -5 -7 10 -37 45 -67 77 -44 47 -50 58 -34
58 11 0 32 -9 45 -20z m39 -112 c26 -52 24 -56 -12 -22 -34 32 -89 112 -89
128 0 18 81 -67 101 -106z m-122 -96 c1 -49 -32 -142 -46 -129 -2 3 1 15 7 28
7 12 15 61 18 108 6 92 20 88 21 -7z"/>
<path d="M3292 4560 c0 -14 2 -19 5 -12 2 6 2 18 0 25 -3 6 -5 1 -5 -13z"/>
<path d="M2461 4514 c15 -18 103 -64 121 -63 7 0 -9 10 -37 23 -27 12 -56 30
-64 39 -7 10 -18 17 -23 17 -6 0 -5 -7 3 -16z"/>
<path d="M1540 3656 c0 -2 7 -7 16 -10 8 -3 12 -2 9 4 -6 10 -25 14 -25 6z"/>
<path d="M1600 3627 c0 -2 21 -18 48 -36 35 -25 40 -26 17 -6 -30 26 -65 49
-65 42z"/>
<path d="M3550 4631 c-19 -15 -74 -54 -122 -85 -49 -32 -88 -59 -88 -62 0 -7
9 -1 110 67 85 57 150 108 140 109 -3 0 -21 -13 -40 -29z"/>
<path d="M3475 4393 c-120 -80 -156 -111 -187 -161 -11 -18 -32 -39 -46 -48
l-27 -15 30 6 c17 3 59 19 94 36 76 35 87 36 131 5 71 -48 154 -59 239 -34 25
8 46 18 48 24 5 14 -78 50 -147 65 -29 6 -80 9 -114 7 l-63 -4 58 54 c58 53
104 115 97 130 -2 4 -52 -25 -113 -65z m66 10 c-20 -38 -169 -163 -193 -163
-6 0 -3 10 8 23 l19 22 -22 -19 c-13 -10 -20 -22 -17 -27 2 -4 -5 -13 -16 -19
-20 -11 -20 -10 -8 12 26 45 54 72 142 129 48 33 90 59 92 59 3 0 0 -8 -5 -17z
m113 -163 c47 -15 64 -24 60 -35 -8 -20 -101 -29 -155 -15 -49 13 -119 49
-119 62 0 16 148 8 214 -12z"/>
<path d="M3450 4339 c-35 -31 -35 -31 -3 -9 18 11 35 25 38 30 10 16 2 11 -35
-21z"/>
<path d="M3389 4293 c-13 -16 -12 -17 4 -4 16 13 21 21 13 21 -2 0 -10 -8 -17
-17z"/>
<path d="M2681 3906 c-21 -22 -27 -33 -16 -33 8 0 13 3 10 5 -3 3 9 15 26 28
17 12 26 25 21 28 -5 3 -23 -10 -41 -28z"/>
<path d="M2880 3854 c-36 -19 -58 -34 -50 -34 16 0 120 57 120 65 0 3 -1 5 -2
4 -2 -1 -32 -16 -68 -35z"/>
<path d="M2820 3675 c19 -7 42 -13 50 -13 8 0 -1 6 -20 13 -19 7 -42 13 -50
13 -8 0 1 -6 20 -13z"/>
<path d="M2903 3653 c9 -2 23 -2 30 0 6 3 -1 5 -18 5 -16 0 -22 -2 -12 -5z"/>
<path d="M2970 3649 c0 -5 5 -7 10 -4 6 3 10 8 10 11 0 2 -4 4 -10 4 -5 0 -10
-5 -10 -11z"/>
<path d="M94 3518 c-18 -29 201 -178 262 -178 33 0 30 -16 -3 -25 -48 -11
-150 -66 -175 -92 l-23 -26 25 6 c14 4 81 19 150 33 127 26 152 35 216 79 25
17 52 25 83 26 l46 1 -45 10 c-25 5 -83 7 -129 4 l-84 -5 -26 31 c-55 65 -105
108 -145 122 -56 20 -144 28 -152 14z m160 -30 c40 -20 84 -58 117 -99 37 -46
40 -44 -37 -26 -56 14 -204 114 -204 139 0 13 92 3 124 -14z m273 -155 c-9 -2
-15 -8 -12 -13 9 -15 -79 -49 -184 -70 -57 -11 -106 -18 -109 -16 -16 17 243
105 303 104 17 0 17 -1 2 -5z"/>
<path d="M410 3295 c-19 -7 -28 -13 -20 -13 8 0 31 6 50 13 19 7 28 13 20 13
-8 0 -31 -6 -50 -13z"/>
<path d="M348 3273 c7 -3 16 -2 19 1 4 3 -2 6 -13 5 -11 0 -14 -3 -6 -6z"/>
<path d="M1301 3450 c-35 -27 -67 -47 -72 -44 -5 3 -9 0 -9 -6 0 -18 41 -1 75
31 16 15 41 37 55 48 52 42 12 18 -49 -29z"/>
<path d="M2470 3413 c0 -10 13 -25 28 -34 16 -9 37 -33 48 -55 18 -37 19 -70
22 -748 2 -507 -1 -725 -9 -765 -9 -44 -20 -64 -50 -93 -22 -21 -39 -42 -39
-48 0 -7 203 -10 639 -10 l639 0 6 63 c3 34 8 117 11 185 6 113 5 122 -12 121
-12 0 -29 -23 -53 -72 -42 -86 -117 -164 -192 -201 -89 -44 -172 -56 -388 -56
-176 0 -198 2 -227 20 -52 31 -54 54 -51 480 l3 385 130 3 c150 3 306 -10 383
-33 63 -19 122 -69 147 -125 12 -26 24 -40 34 -38 14 3 16 31 19 216 2 208 2
212 -18 212 -13 0 -24 -10 -31 -27 -47 -125 -157 -162 -482 -163 l-187 0 2
378 3 377 215 -1 c185 -1 226 -5 295 -23 143 -38 228 -108 296 -243 21 -41 33
-56 44 -52 18 7 18 35 2 224 l-12 135 -607 3 c-574 2 -608 1 -608 -15z"/>
<path d="M305 3075 c-135 -31 -188 -46 -183 -50 2 -2 28 2 58 10 30 8 91 22
135 31 44 9 84 20 90 25 5 5 7 9 5 8 -3 0 -50 -11 -105 -24z"/>
<path d="M3191 401 c-39 -60 -71 -112 -71 -115 0 -3 27 -6 60 -6 l60 0 0 -40
c0 -33 -4 -42 -22 -50 -17 -6 -7 -9 42 -9 49 0 59 3 43 9 -19 8 -23 17 -23 50
0 36 3 40 24 40 18 0 26 -7 29 -22 2 -13 4 0 4 27 0 28 -2 40 -4 27 -3 -15
-11 -22 -29 -22 -24 0 -24 0 -24 110 0 61 -4 110 -9 110 -5 0 -41 -49 -80
-109z m49 -36 l0 -75 -50 0 c-27 0 -50 3 -50 6 0 12 85 144 92 144 5 0 8 -34
8 -75z"/>
<path d="M745 478 c-15 -12 -34 -36 -41 -54 -17 -40 -18 -137 -3 -167 17 -32
61 -77 75 -77 7 0 2 11 -11 25 -23 22 -25 31 -25 124 0 139 16 172 75 157 30
-8 45 -55 45 -146 0 -86 -15 -139 -43 -150 -14 -5 -16 -9 -7 -9 27 -1 61 30
81 73 33 73 20 164 -32 216 -37 36 -75 39 -114 8z"/>
<path d="M983 480 c-36 -22 -44 -58 -18 -80 12 -10 18 -10 30 0 21 18 19 39
-7 49 l-21 8 24 16 c32 23 65 21 90 -4 17 -17 20 -30 16 -66 -4 -40 -13 -54
-83 -124 -55 -55 -75 -82 -68 -89 7 -7 48 -10 105 -8 l94 3 2 50 c2 42 1 46
-8 25 -14 -35 -26 -40 -103 -40 l-70 0 59 53 c81 71 106 98 117 126 29 76 -79
130 -159 81z"/>
<path d="M1313 493 c9 -2 17 -10 18 -16 0 -7 1 -68 2 -137 l0 -125 6 120 6
120 44 -125 c24 -69 47 -129 51 -133 4 -5 19 26 34 69 14 43 24 79 22 81 -2 3
-10 -15 -18 -39 l-15 -43 -20 55 c-11 30 -30 83 -43 118 l-22 62 -42 -1 c-22
-1 -33 -3 -23 -6z"/>
<path d="M1545 490 c-11 -18 -45 -123 -41 -127 2 -2 13 22 24 54 l20 58 1
-142 c1 -127 -1 -142 -16 -146 -10 -3 9 -5 42 -5 33 0 52 2 43 5 -16 4 -18 20
-18 153 0 133 2 149 18 153 9 3 -2 5 -25 6 -23 0 -45 -3 -48 -9z"/>
<path d="M1790 475 c-18 -48 -23 -78 -12 -71 6 3 17 -13 26 -41 23 -68 22 -73
-24 -73 -22 0 -40 2 -40 4 0 2 7 23 15 46 8 24 13 45 11 47 -2 2 -18 -39 -36
-92 -24 -72 -38 -99 -54 -105 -15 -6 -6 -8 34 -8 30 1 43 3 28 5 -32 5 -32 3
-16 54 11 38 12 39 58 39 46 0 47 -1 63 -41 15 -39 15 -40 -6 -49 -16 -6 -4
-9 43 -9 44 0 58 3 45 9 -16 6 -32 43 -69 159 -26 83 -49 151 -52 151 -2 0 -9
-11 -14 -25z"/>
<path d="M1993 494 c15 -5 17 -21 17 -154 0 -133 -2 -149 -17 -153 -10 -3 9
-5 42 -5 33 0 52 2 43 5 -15 4 -17 21 -17 154 l0 149 33 0 c39 0 66 -26 66
-62 0 -40 -10 -59 -39 -70 -19 -8 -22 -12 -10 -15 20 -5 39 -45 39 -83 0 -55
16 -80 51 -80 30 0 31 1 16 18 -10 11 -17 36 -17 60 0 41 -25 82 -51 82 -6 0
3 12 20 26 36 30 41 70 12 105 -17 22 -28 24 -113 26 -51 1 -85 -1 -75 -3z"/>
<path d="M2413 481 c-25 -16 -33 -28 -33 -50 0 -32 24 -48 46 -30 21 17 17 39
-8 48 l-21 8 24 16 c72 51 139 -28 95 -111 -8 -15 -44 -56 -80 -92 -36 -35
-66 -70 -66 -78 0 -10 23 -12 103 -10 l102 3 2 50 c2 42 1 46 -8 25 -14 -35
-26 -40 -103 -40 l-68 0 86 83 c49 47 88 93 92 108 15 67 -94 113 -163 70z"/>
<path d="M2681 484 c-32 -23 -61 -90 -61 -142 0 -71 50 -162 89 -162 13 0 12
2 -2 13 -9 6 -21 25 -27 40 -15 42 -12 182 5 223 13 31 18 35 47 32 49 -5 59
-33 56 -161 -3 -101 -5 -110 -27 -128 -15 -12 -18 -19 -9 -19 19 0 64 48 77
83 17 45 13 124 -9 167 -34 67 -89 88 -139 54z"/>
<path d="M2940 493 c-26 -10 -60 -46 -60 -64 0 -20 28 -39 48 -32 17 7 15 40
-4 51 -22 13 -10 29 27 37 47 11 79 -16 79 -66 0 -55 -12 -74 -93 -150 -44
-41 -68 -69 -63 -77 5 -8 40 -12 106 -12 l99 0 7 45 c8 55 1 67 -18 28 -13
-27 -17 -28 -88 -31 l-75 -3 88 84 c78 76 87 88 87 121 0 30 -5 40 -32 56 -32
19 -76 24 -108 13z"/>
<path d="M1204 215 c-4 -9 -2 -21 4 -27 15 -15 44 -1 40 19 -4 23 -36 29 -44
8z"/>
<path d="M2280 211 c0 -27 19 -36 37 -18 18 18 9 37 -18 37 -12 0 -19 -7 -19
-19z"/>
<path d="M1310 190 c-11 -7 -4 -10 25 -9 31 0 36 2 20 9 -26 11 -28 11 -45 0z"/>
</g>
</svg>
